<?xml version="1.0" encoding="UTF-8"?>
<svg width="110px" height="20px" viewBox="0 0 110 20" version="1.1" xmlns="http://www.w3.org/2000/svg" xmlns:xlink="http://www.w3.org/1999/xlink">
    <!-- Generator: Sketch 59.1 (86144) - https://sketch.com -->
    <title>Logo Rewards</title>
    <desc>Created with Sketch.</desc>
    <g id="Logo-Rewards" stroke="none" stroke-width="1" fill="none" fill-rule="evenodd">
        <path d="M31.3602001,9.29681977 L31.9945236,9.29681977 C32.6574236,9.29681977 33.1660202,9.15547843 33.5203288,8.8727915 C33.8746374,8.59010458 34.051789,8.18374822 34.051789,7.65371023 C34.051789,7.12367225 33.8746374,6.71731589 33.5203288,6.43462896 C33.1660202,6.15194203 32.6574236,6.01060069 31.9945236,6.01060069 L31.3602001,6.01060069 L31.3602001,9.29681977 Z M38.7492117,16.6643109 L34.5661054,16.6643109 L31.3602001,11.540636 L31.3602001,16.6643109 L28,16.6643109 L28,3.34275617 L33.2288829,3.34275617 C33.9489294,3.34275617 34.577532,3.45170679 35.1147095,3.66961129 C35.651887,3.8875158 36.0947661,4.18492154 36.4433601,4.56183744 C36.791954,4.93875334 37.0548242,5.37455582 37.2319785,5.86925794 C37.4091328,6.36396006 37.4977086,6.89399009 37.4977086,7.45936394 C37.4977086,8.47232543 37.260554,9.29387198 36.7862376,9.92402825 C36.3119213,10.5541845 35.6118866,10.9811532 34.6861125,11.204947 L38.7492117,16.6643109 Z M46.7211151,10.8162544 C46.6182513,10.3686668 46.4068123,10.0094242 46.0867916,9.73851589 C45.7667709,9.46760758 45.3781803,9.33215546 44.9210079,9.33215546 C44.4409769,9.33215546 44.0495289,9.46171836 43.7466522,9.72084804 C43.4437755,9.97997772 43.2523375,10.3451095 43.1723323,10.8162544 L46.7211151,10.8162544 Z M43.0866129,12.6713781 C43.0866129,14.0494768 43.7152155,14.7385159 44.9724395,14.7385159 C45.6467688,14.7385159 46.1553654,14.4558332 46.4982447,13.8904593 L49.4984234,13.8904593 C48.89267,15.9634968 47.3783092,17 44.9552956,17 C44.2123905,17 43.5323568,16.8851601 42.9151741,16.655477 C42.2979914,16.4257939 41.7693938,16.0989399 41.3293654,15.6749116 C40.889337,15.2508813 40.5493201,14.7444081 40.3093046,14.155477 C40.0692891,13.5665459 39.9492832,12.906953 39.9492832,12.1766784 C39.9492832,11.4228466 40.0635746,10.7426414 40.2921607,10.1360424 C40.5207469,9.52944336 40.8464774,9.01413638 41.2693618,8.59010599 C41.6922463,8.1660756 42.2037002,7.83922375 42.8037389,7.60954062 C43.4037777,7.37985749 44.0809541,7.26501765 44.8352885,7.26501765 C45.5781936,7.26501765 46.2467982,7.37985749 46.8411222,7.60954062 C47.4354463,7.83922375 47.9383284,8.17196483 48.3497835,8.60777384 C48.7612387,9.04358285 49.07554,9.57655749 49.2926968,10.2067138 C49.5098537,10.83687 49.6184305,11.5465214 49.6184305,12.335689 L49.6184305,12.6713781 L43.0866129,12.6713781 Z M54.2129899,7.6007067 L56.3216869,12.3710247 L58.5161034,7.6007067 L60.4705055,7.6007067 L62.6649219,12.5123675 L64.8764822,7.6007067 L68.3224017,7.6007067 L63.7278424,16.6643109 L61.6534331,16.6643109 L59.4590167,11.6996466 L57.3674635,16.6643109 L55.2587665,16.6643109 L50.7499265,7.6007067 L54.2129899,7.6007067 Z M72.4797922,12.1060071 C72.4797922,12.4004726 72.5312234,12.6743215 72.6340871,12.9275618 C72.7369509,13.1808022 72.8769579,13.401648 73.0541122,13.590106 C73.2312664,13.7785639 73.4427055,13.9257945 73.6884356,14.0318021 C73.9341658,14.1378097 74.1998933,14.1908127 74.485626,14.1908127 C74.7599294,14.1908127 75.0199423,14.1378097 75.2656725,14.0318021 C75.5114026,13.9257945 75.7228417,13.7785639 75.8999959,13.590106 C76.0771502,13.401648 76.2200145,13.1837468 76.3285929,12.9363957 C76.4371713,12.6890447 76.4914598,12.4240297 76.4914598,12.1413427 C76.4914598,11.8586558 76.4371713,11.5906962 76.3285929,11.3374558 C76.2200145,11.0842154 76.0771502,10.8633696 75.8999959,10.6749116 C75.7228417,10.4864537 75.5114026,10.3392231 75.2656725,10.2332155 C75.0199423,10.1272079 74.7599294,10.0742049 74.485626,10.0742049 C74.1998933,10.0742049 73.9341658,10.1272079 73.6884356,10.2332155 C73.4427055,10.3392231 73.2312664,10.4864537 73.0541122,10.6749116 C72.8769579,10.8633696 72.7369509,11.0783262 72.6340871,11.319788 C72.5312234,11.5612497 72.4797922,11.8233201 72.4797922,12.1060071 Z M76.3885965,7.6007067 L79.5087823,7.6007067 L79.5087823,16.6643109 L76.3885965,16.6643109 L76.3885965,15.6572438 C75.7256965,16.5170832 74.8285092,16.9469965 73.6970076,16.9469965 C73.0569663,16.9469965 72.4683657,16.8262674 71.9311881,16.5848056 C71.3940106,16.3433439 70.9254159,16.0047136 70.5253901,15.5689046 C70.1253643,15.1330956 69.8139203,14.6207332 69.5910487,14.0318021 C69.3681772,13.442871 69.2567431,12.8009457 69.2567431,12.1060071 C69.2567431,11.4581828 69.3653199,10.8427591 69.5824768,10.2597173 C69.7996337,9.67667552 70.1025058,9.16725776 70.4911023,8.73144875 C70.8796989,8.29563974 71.342579,7.95112021 71.8797565,7.69787984 C72.416934,7.44463947 73.0112492,7.31802119 73.6627198,7.31802119 C74.7599335,7.31802119 75.66855,7.7125991 76.3885965,8.50176677 L76.3885965,7.6007067 Z M82.6889718,7.6007067 L85.7920137,7.6007067 L85.7920137,9.08480564 C86.1234637,8.54298903 86.5291981,8.12779884 87.0092291,7.8392226 C87.4892601,7.55064636 88.0492878,7.40636041 88.6893292,7.40636041 L88.9550593,7.40636041 C89.0522084,7.40636041 89.1636425,7.41813885 89.2893649,7.4416961 L89.2893649,10.4982332 C88.8779098,10.286218 88.4321734,10.180212 87.9521424,10.180212 C87.2320959,10.180212 86.6920691,10.4010578 86.3320459,10.8427562 C85.9720226,11.2844545 85.7920137,11.9293244 85.7920137,12.7773851 L85.7920137,16.6643109 L82.6889718,16.6643109 L82.6889718,7.6007067 Z M93.5410467,12.1060071 C93.5410467,12.4004726 93.5924778,12.6743215 93.6953416,12.9275618 C93.7982054,13.1808022 93.9382123,13.401648 94.1153666,13.590106 C94.2925209,13.7785639 94.50396,13.9257945 94.7496901,14.0318021 C94.9954203,14.1378097 95.2611477,14.1908127 95.5468805,14.1908127 C95.8211839,14.1908127 96.0811968,14.1378097 96.3269269,14.0318021 C96.5726571,13.9257945 96.7840961,13.7785639 96.9612504,13.590106 C97.1384047,13.401648 97.2812689,13.1837468 97.3898474,12.9363957 C97.4984258,12.6890447 97.5527142,12.4240297 97.5527142,12.1413427 C97.5527142,11.8586558 97.4984258,11.5906962 97.3898474,11.3374558 C97.2812689,11.0842154 97.1384047,10.8633696 96.9612504,10.6749116 C96.7840961,10.4864537 96.5726571,10.3392231 96.3269269,10.2332155 C96.0811968,10.1272079 95.8211839,10.0742049 95.5468805,10.0742049 C95.272577,10.0742049 95.0125642,10.1272079 94.766834,10.2332155 C94.5211039,10.3392231 94.3096648,10.4864537 94.1325105,10.6749116 C93.9553562,10.8633696 93.812492,11.0783262 93.7039136,11.319788 C93.5953351,11.5612497 93.5410467,11.8233201 93.5410467,12.1060071 Z M97.449851,1.99999999 L100.570037,1.99999999 L100.570037,16.6643109 L97.449851,16.6643109 L97.449851,15.6572438 C96.786951,16.5170832 95.8897637,16.9469965 94.7582621,16.9469965 C94.1182207,16.9469965 93.5296201,16.8233228 92.9924426,16.5759717 C92.4552651,16.3286207 91.9866704,15.9870457 91.5866446,15.5512367 C91.1866188,15.1154277 90.8751748,14.6030654 90.6523032,14.0141343 C90.4294317,13.4252032 90.3179976,12.7891671 90.3179976,12.1060071 C90.3179976,11.4581828 90.4237171,10.8427591 90.6351593,10.2597173 C90.8466016,9.67667552 91.1466164,9.16725776 91.535213,8.73144875 C91.9238095,8.29563974 92.3895468,7.95112021 92.932439,7.69787984 C93.4753312,7.44463947 94.0725037,7.31802119 94.7239743,7.31802119 C95.821188,7.31802119 96.7298045,7.7125991 97.449851,8.50176677 L97.449851,1.99999999 Z M108.679921,9.93286218 C108.108456,9.62661801 107.548428,9.47349822 106.999821,9.47349822 C106.714089,9.47349822 106.482649,9.53239044 106.305494,9.65017666 C106.12834,9.76796288 106.039764,9.92697189 106.039764,10.1272085 C106.039764,10.2332161 106.054051,10.3186098 106.082624,10.3833922 C106.111197,10.4481746 106.174057,10.5100115 106.271206,10.5689046 C106.368356,10.6277977 106.51122,10.6808007 106.699803,10.7279152 C106.888387,10.7750297 107.136971,10.8339219 107.445562,10.9045936 C108.30276,11.081273 108.942792,11.3963464 109.365677,11.8498233 C109.788561,12.3033003 110,12.8833887 110,13.590106 C110,14.120144 109.897138,14.597171 109.69141,15.0212014 C109.485683,15.4452318 109.199954,15.8015298 108.834216,16.090106 C108.468478,16.3786822 108.028457,16.6024727 107.514138,16.7614841 C106.999819,16.9204955 106.434076,17 105.816894,17 C104.628246,17 103.456759,16.6525359 102.302399,15.9575972 L103.433895,13.6961131 C104.302522,14.3086014 105.12542,14.614841 105.902613,14.614841 C106.188346,14.614841 106.422643,14.5500595 106.605512,14.4204947 C106.788381,14.2909298 106.879814,14.1260316 106.879814,13.925795 C106.879814,13.8080088 106.865528,13.7108366 106.836954,13.6342756 C106.808381,13.5577146 106.748378,13.4870439 106.656944,13.4222615 C106.565509,13.357479 106.431217,13.2985868 106.254063,13.245583 C106.076908,13.1925792 105.845468,13.1366316 105.559736,13.0777385 C104.599674,12.8775019 103.928212,12.5800962 103.54533,12.1855124 C103.162448,11.7909285 102.97101,11.2461754 102.97101,10.5512367 C102.97101,10.044756 103.062443,9.58834124 103.245312,9.18197878 C103.428181,8.77561633 103.691051,8.4310968 104.03393,8.14840988 C104.37681,7.86572295 104.791116,7.64782172 105.276862,7.49469963 C105.762607,7.34157755 106.302634,7.26501765 106.896958,7.26501765 C107.868449,7.26501765 108.811353,7.459362 109.725698,7.84805652 L108.679921,9.93286218 Z" id="Rewards" fill="#FFFFFF" fill-rule="nonzero"></path>
        <g id="Logo/Logo-20px">
            <g id="tangram">
                <polygon id="Combined-Shape" fill="#735BA3" points="15 15 10 20 0 20 5 15"></polygon>
                <polygon id="Rectangle" fill="#F7941E" points="0 0 10 10 0 20"></polygon>
                <polygon id="Rectangle-4" fill="#1C3E6C" points="0 0 20 0 10 10"></polygon>
                <polygon id="Rectangle-5" fill="#4EC1E2" points="20 10 20 20 10 20"></polygon>
                <polygon id="Combined-Shape" fill="#DC4D37" points="10 10 15 15 5 15"></polygon>
                <polygon id="Combined-Shape" fill="#F5E12D" points="20 10 15 15 10 10 15 5"></polygon>
                <polygon id="Combined-Shape" fill="#05AF86" points="20 10 15 5 20 0"></polygon>
            </g>
        </g>
    </g>
</svg>