<?xml version="1.0" encoding="UTF-8"?>
<svg width="28px" height="28px" viewBox="0 0 28 28" version="1.1" xmlns="http://www.w3.org/2000/svg" xmlns:xlink="http://www.w3.org/1999/xlink">
    <!-- Generator: sketchtool 51.2 (57519) - http://www.bohemiancoding.com/sketch -->
    <title>BF4FFF5D-E556-4E46-9872-0BDE19A623D3</title>
    <desc>Created with sketchtool.</desc>
    <defs></defs>
    <g id="Symbols" stroke="none" stroke-width="1" fill="none" fill-rule="evenodd">
        <g id="Elements/LeadBoard/Menu/1920/Filtered" transform="translate(-24.000000, -10.000000)">
            <g id="Elements/LeadBoard/Menu/1920">
                <g id="Logo" transform="translate(24.000000, 10.000000)">
                    <g>
                        <polyline id="Fill-11" fill="#FC920E" points="0 26.9956 0 0.8068 13.0976 13.902 0 26.9956"></polyline>
                        <polyline id="Fill-13" fill="#FBDF1C" points="27.4784 13.902 21.0408 7.4652 14.604 13.902 21.04 20.3392 27.4784 13.902"></polyline>
                        <polyline id="Fill-14" fill="#E3402C" points="13.8508 14.6548 7.9448 20.5596 19.7544 20.5596 13.8508 14.6548"></polyline>
                        <polyline id="Fill-15" fill="#163767" points="0.7532 0.0536 26.946 0.0536 13.8508 13.1488 0.7532 0.0536"></polyline>
                        <polyline id="Fill-16" fill="#00A17F" points="27.6988 12.616 27.6988 0.8068 21.7936 6.712 27.6988 12.616"></polyline>
                        <polyline id="Fill-17" fill="#21C1E1" points="27.6988 15.1876 15.1364 27.7488 27.6988 27.7488 27.6988 15.1876"></polyline>
                        <polyline id="Fill-18" fill="#6E509C" points="6.8796 21.6248 19.7544 21.6248 13.6304 27.7488 0.7536 27.7488 6.8796 21.6248"></polyline>
                    </g>
                </g>
            </g>
        </g>
    </g>
</svg>