<?xml version="1.0" standalone="no"?>
<!DOCTYPE svg PUBLIC "-//W3C//DTD SVG 1.1//EN" "http://www.w3.org/Graphics/SVG/1.1/DTD/svg11.dtd" >
<svg xmlns="http://www.w3.org/2000/svg">
<metadata>Generated by IcoMoon</metadata>
<defs>
<font id="icomoon" horiz-adv-x="1024">
<font-face units-per-em="1024" ascent="960" descent="-64" />
<missing-glyph horiz-adv-x="1024" />
<glyph unicode="&#x20;" horiz-adv-x="512" d="" />
<glyph unicode="&#xe900;" glyph-name="arrow-next" d="M346.51 541.098l248.235 248.235 90.51-90.51-248.235-248.235 248.235-248.235-90.51-90.51-338.745 338.745 90.51 90.51z" />
<glyph unicode="&#xe901;" glyph-name="arrow-right" d="M602.282 504.889h-599.157c28.299 255.997 245.334 455.111 508.875 455.111 282.77 0 512-229.23 512-512s-229.23-512-512-512c-263.541 0-480.576 199.114-508.875 455.111h599.157l-187.39-187.322 80.438-80.468 324.797 324.678-324.797 324.678-80.438-80.468 187.39-187.322z" />
<glyph unicode="&#xe902;" glyph-name="arrows-up-down" d="M512 64l-256 320h512l-256-320zM512 832l256-320h-512l256 320z" />
<glyph unicode="&#xe903;" glyph-name="bell" d="M554.667 742.286c96.847-19.952 169.664-105.698 169.664-208.451v-213.835h86.336v-85.333h-597.333v85.333h85.333v213.835c0 103.108 73.32 189.091 170.667 208.655v25.51c0 11.782 9.551 21.333 21.333 21.333h42.667c11.782 0 21.333-9.551 21.333-21.333v-25.714zM426.667 192h170.667c0-47.128-38.205-85.333-85.333-85.333s-85.333 38.205-85.333 85.333z" />
<glyph unicode="&#xe904;" glyph-name="calendar" d="M725.333 704h64c11.782 0 21.333-9.551 21.333-21.333v-106.667h-597.333v106.667c0 11.782 9.551 21.333 21.333 21.333h64v64c0 11.782 9.551 21.333 21.333 21.333h42.667c11.782 0 21.333-9.551 21.333-21.333v-64h256v64c0 11.782 9.551 21.333 21.333 21.333h42.667c11.782 0 21.333-9.551 21.333-21.333v-64zM213.333 533.333h597.333v-405.333c0-11.782-9.551-21.333-21.333-21.333h-554.667c-11.782 0-21.333 9.551-21.333 21.333v405.333zM308.907 448c-5.655 0-10.24-4.585-10.24-10.24v-64.853c0-5.655 4.585-10.24 10.24-10.24h64.853c5.655 0 10.24 4.585 10.24 10.24v64.853c0 5.655-4.585 10.24-10.24 10.24h-64.853zM479.573 448c-5.655 0-10.24-4.585-10.24-10.24v-64.853c0-5.655 4.585-10.24 10.24-10.24h64.853c5.655 0 10.24 4.585 10.24 10.24v64.853c0 5.655-4.585 10.24-10.24 10.24h-64.853zM650.24 448c-5.655 0-10.24-4.585-10.24-10.24v-64.853c0-5.655 4.585-10.24 10.24-10.24h64.853c5.655 0 10.24 4.585 10.24 10.24v64.853c0 5.655-4.585 10.24-10.24 10.24h-64.853zM650.24 277.333c-5.655 0-10.24-4.585-10.24-10.24v-64.853c0-5.655 4.585-10.24 10.24-10.24h64.853c5.655 0 10.24 4.585 10.24 10.24v64.853c0 5.655-4.585 10.24-10.24 10.24h-64.853zM479.573 277.333c-5.655 0-10.24-4.585-10.24-10.24v-64.853c0-5.655 4.585-10.24 10.24-10.24h64.853c5.655 0 10.24 4.585 10.24 10.24v64.853c0 5.655-4.585 10.24-10.24 10.24h-64.853zM308.907 277.333c-5.655 0-10.24-4.585-10.24-10.24v-64.853c0-5.655 4.585-10.24 10.24-10.24h64.853c5.655 0 10.24 4.585 10.24 10.24v64.853c0 5.655-4.585 10.24-10.24 10.24h-64.853z" />
<glyph unicode="&#xe905;" glyph-name="calendar-small" d="M209.143 512.428h605.714c9.429 0 17.143-8.331 17.143-18.514v-355.857c0-40.886-30.714-74.057-68.571-74.057h-502.857c-37.857 0-68.571 33.171-68.571 74.057v355.857c0 10.183 7.714 18.514 17.143 18.514zM832 592.609v79.391c0 37.857-30.714 68.571-68.571 68.571h-68.571v74.286c0 9.429-7.714 17.143-17.143 17.143h-57.143c-9.429 0-17.143-7.714-17.143-17.143v-74.286h-182.857v74.286c0 9.429-7.714 17.143-17.143 17.143h-57.143c-9.429 0-17.143-7.714-17.143-17.143v-74.286h-68.571c-37.857 0-68.571-30.714-68.571-68.571v-79.391c0-9.429 7.714-17.143 17.143-17.143h605.714c9.429 0 17.143 7.714 17.143 17.143z" />
<glyph unicode="&#xe906;" glyph-name="campaigns" horiz-adv-x="1075" d="M137.291 553.773l392.050 317.242 185.564-692.533-498.105 78.558-74.183-19.877c-13.657-3.659-27.694 4.445-31.353 18.102l-66.258 247.277c-3.659 13.657 4.445 27.694 18.102 31.353l74.183 19.877zM573.538 903.892l61.686 38.097c12.029 7.429 27.804 3.7 35.233-8.329 1.309-2.12 2.302-4.419 2.947-6.826l194.214-724.817c3.659-13.657-4.445-27.694-18.102-31.353-2.407-0.645-4.894-0.935-7.385-0.861l-72.47 2.15-196.123 731.94zM342.214 184.633l219.637-28.41 37.817-141.133c3.659-13.657-4.445-27.694-18.102-31.353l-148.366-39.755c-13.657-3.659-27.694 4.445-31.353 18.102l-59.632 222.549zM931.553 651.472l101.066 27.081c13.062 3.5 26.487-4.251 29.987-17.313l0.578-2.155c3.5-13.062-4.251-26.487-17.313-29.987l-101.066-27.081c-13.062-3.5-26.487 4.251-29.987 17.313l-0.578 2.155c-3.5 13.062 4.251 26.487 17.313 29.987zM830.816 807.231l73.986 73.986c9.562 9.562 25.064 9.562 34.626 0l1.578-1.578c9.562-9.562 9.562-25.064 0-34.626l-73.986-73.986c-9.562-9.562-25.064-9.562-34.626 0l-1.578 1.578c-9.562 9.562-9.562 25.064 0 34.626zM947.438 468.747l101.066-27.081c13.062-3.5 20.813-16.925 17.313-29.987s-16.925-20.813-29.987-17.313l-101.066 27.081c-13.062 3.5-20.813 16.925-17.313 29.987s16.925 20.813 29.987 17.313z" />
<glyph unicode="&#xe907;" glyph-name="industry-iot" d="M648.533 72.533h-102.4v-136.533h-68.267v136.533h-102.4v-136.533h-68.267v136.533h-136.533c-18.851 0-34.133 15.282-34.133 34.133v136.533h-136.533v68.267h136.533v102.4h-136.533v68.267h136.533v102.4h-136.533v68.267h136.533v136.533c0 18.851 15.282 34.133 34.133 34.133h136.533v136.533h68.267v-136.533h102.4v136.533h68.267v-136.533h102.4v136.533h68.267v-136.533h136.533c18.851 0 34.133-15.282 34.133-34.133v-136.533h136.533v-68.267h-136.533v-102.4h136.533v-68.267h-136.533v-102.4h136.533v-68.267h-136.533v-136.533c0-18.851-15.282-34.133-34.133-34.133h-136.533v-136.533h-68.267v136.533zM785.067 721.067h-546.133v-546.133h546.133v546.133zM273.067 686.933h477.867v-477.867h-477.867v477.867z" />
<glyph unicode="&#xe908;" glyph-name="close" d="M605.516 448l247.817-247.817-93.516-93.516-247.817 247.817-247.817-247.817-93.516 93.516 247.817 247.817-247.817 247.817 93.516 93.516 247.817-247.817 247.817 247.817 93.516-93.516-247.817-247.817z" />
<glyph unicode="&#xe909;" glyph-name="comments" d="M392.547 305.2l-176.285-103.91 20.748 143.113c-91.404 43.427-151.677 117.846-151.677 202.359 0 133.968 151.452 242.571 338.278 242.571s315.599-108.603 315.599-242.571c0-133.968-128.773-242.571-315.599-242.571-10.473 0-20.834 0.341-31.064 1.009zM668.429 178.546c-21.98-3.218-44.735-4.909-68.041-4.909-80.704 0-150.576 20.266-203.914 54.087 2.064-0.023 4.134-0.035 6.211-0.035 223.484 0 404.654 133.823 404.654 298.901 0 31.907-6.768 62.646-19.302 91.477 90.816-43.497 150.629-117.669 150.629-201.859 0-71.35-42.959-135.505-111.342-179.89l24.006-165.581-182.901 107.809z" />
<glyph unicode="&#xe90a;" glyph-name="confirm" d="M454.2 329.021l362.039 362.039 90.51-90.51-452.548-452.548-316.784 316.784 90.51 90.51 226.274-226.274z" />
<glyph unicode="&#xe90b;" glyph-name="cup" d="M341.333 149.333h341.333c23.564 0 42.667-19.103 42.667-42.667v-42.667h-426.667v42.667c0 23.564 19.103 42.667 42.667 42.667zM234.667 832h554.667c11.782 0 21.333-9.551 21.333-21.333v-292.845c0-72.535-41.421-138.702-106.667-170.393l-82.641-40.14c-14.696-7.138-24.025-22.041-24.025-38.379v-76.91h-170.667v76.91c0 16.338-9.329 31.241-24.025 38.379l-82.641 40.14c-65.246 31.691-106.667 97.858-106.667 170.393v292.845c0 11.782 9.551 21.333 21.333 21.333zM512 490.667l81.185-42.681c2.076-1.092 4.455-1.468 6.767-1.072 5.806 0.996 9.706 6.51 8.71 12.316l-15.505 90.401 65.68 64.022c1.68 1.637 2.773 3.783 3.11 6.104 0.847 5.83-3.192 11.243-9.022 12.090l-90.768 13.189-40.592 82.249c-1.038 2.104-2.741 3.806-4.844 4.844-5.283 2.607-11.679 0.438-14.286-4.844l-40.592-82.249-90.768-13.189c-2.321-0.337-4.467-1.431-6.104-3.11-4.112-4.218-4.026-10.972 0.193-15.084l65.68-64.022-15.505-90.401c-0.397-2.312-0.020-4.69 1.072-6.767 2.741-5.214 9.191-7.219 14.405-4.478l81.185 42.681zM170.667 789.333v-256c-10.013 0-19.623 2.587-28.55 7.339-33.088 17.616-56.784 64.988-56.784 120.661 0 56.013 23.986 103.623 57.392 120.98 8.754 4.549 18.156 7.020 27.942 7.020zM853.333 533.333v256c10.013 0 19.623-2.587 28.55-7.339 33.088-17.616 56.784-64.988 56.784-120.661 0-56.013-23.986-103.623-57.392-120.98-8.754-4.549-18.156-7.020-27.942-7.020z" />
<glyph unicode="&#xe90c;" glyph-name="disqualified" d="M250.528 669.246l40.227 40.227 482.718-482.718-40.227-40.227-482.718 482.718zM512 163.556c157.094 0 284.444 127.35 284.444 284.444s-127.35 284.444-284.444 284.444c-157.094 0-284.444-127.35-284.444-284.444s127.35-284.444 284.444-284.444zM512 106.667c-188.513 0-341.333 152.82-341.333 341.333s152.82 341.333 341.333 341.333c188.513 0 341.333-152.82 341.333-341.333s-152.82-341.333-341.333-341.333z" />
<glyph unicode="&#xe90d;" glyph-name="download" d="M448 576v213.333h128v-213.333h106.667l-170.667-213.333-170.667 213.333h106.667zM725.333 234.667v170.667h128v-298.667h-682.667v298.667h128v-170.667h426.667z" />
<glyph unicode="&#xe90e;" glyph-name="edit" d="M261.934 347.452l301.699 301.699 150.849-150.849-301.699-301.699-150.849 150.849zM623.973 709.49l75.425 75.425c8.331 8.331 21.839 8.331 30.17 0l120.68-120.68c8.331-8.331 8.331-21.839 0-30.17l-75.425-75.425-150.849 150.849zM171.425 106.093l30.17 181.019 150.849-150.849-181.019-30.17z" />
<glyph unicode="&#xe90f;" glyph-name="email" d="M896 248.892c0-17.46-4.736-33.646-12.322-47.887l-242.489 281.359 239.86 217.629c9.331-15.356 14.951-33.393 14.951-52.886v-398.215zM512.001 431.277l333.757 302.846c-13.696 7.776-29.119 12.544-45.756 12.544h-576.003c-16.658 0-32.085-4.768-45.726-12.544l333.727-302.846zM605.050 449.599l-77.256-70.145c-4.519-4.082-10.146-6.121-15.793-6.121-5.651 0-11.278 2.039-15.797 6.121l-77.273 70.149-245.557-284.956c14.719-9.576 31.968-15.313 50.623-15.313h576.004c18.652 0 35.909 5.737 50.623 15.313l-245.576 284.952zM142.954 699.994c-9.329-15.356-14.954-33.393-14.954-52.887v-398.217c0-17.46 4.714-33.646 12.329-47.887l242.461 281.409-239.835 217.583z" />
<glyph unicode="&#xe910;" glyph-name="facebook" d="M415.111 657.123c0-17.203 0-93.99 0-93.99h-73.777v-114.931h73.777v-341.535h151.554v341.525h101.7c0 0 9.525 55.109 14.142 115.364-13.237 0-115.269 0-115.269 0s0 66.863 0 78.583c0 11.745 16.524 27.544 32.856 27.544 16.301 0 50.706 0 82.573 0 0 15.648 0 69.715 0 119.65-42.54 0-90.937 0-112.271 0-159.032 0.008-155.285-115.037-155.285-132.211z" />
<glyph unicode="&#xe911;" glyph-name="filter" d="M872.493 789.333h-720.986c-5.891 0-10.667-4.776-10.667-10.667 0-2.584 0.938-5.080 2.639-7.024l283.187-323.643v-330.667c0-5.891 4.776-10.667 10.667-10.667h65.534c5.832 0 11.411 2.388 15.436 6.608l73.133 76.665c3.785 3.968 5.897 9.241 5.897 14.725v243.335l283.187 323.643c3.879 4.433 3.43 11.172-1.003 15.052-1.944 1.701-4.44 2.639-7.024 2.639z" />
<glyph unicode="&#xe912;" d="M213.333 789.333h42.667v-682.667h-42.667c-23.564 0-42.667 19.103-42.667 42.667v597.333c0 23.564 19.103 42.667 42.667 42.667z" />
<glyph unicode="&#xe913;" d="M341.333 789.333h444.193c23.564 0 42.667-19.103 42.667-42.667 0-6.391-1.436-12.701-4.202-18.463l-73.058-152.203 73.058-152.203c10.197-21.244 1.242-46.731-20.002-56.928-5.762-2.766-12.072-4.202-18.463-4.202h-444.193v426.667z" />
<glyph unicode="&#xe914;" d="M213.333 789.333h42.667v-682.667h-42.667c-23.564 0-42.667 19.103-42.667 42.667v597.333c0 23.564 19.103 42.667 42.667 42.667z" />
<glyph unicode="&#xe915;" d="M341.333 789.333h444.193c23.564 0 42.667-19.103 42.667-42.667 0-6.391-1.436-12.701-4.202-18.463l-73.058-152.203 73.058-152.203c10.197-21.244 1.242-46.731-20.002-56.928-5.762-2.766-12.072-4.202-18.463-4.202h-444.193v426.667z" />
<glyph unicode="&#xe916;" d="M213.333 789.333h42.667v-682.667h-42.667c-23.564 0-42.667 19.103-42.667 42.667v597.333c0 23.564 19.103 42.667 42.667 42.667z" />
<glyph unicode="&#xe917;" d="M341.333 789.333h444.193c23.564 0 42.667-19.103 42.667-42.667 0-6.391-1.436-12.701-4.202-18.463l-73.058-152.203 73.058-152.203c10.197-21.244 1.242-46.731-20.002-56.928-5.762-2.766-12.072-4.202-18.463-4.202h-444.193v426.667z" />
<glyph unicode="&#xe918;" d="M213.333 789.333h42.667v-682.667h-42.667c-23.564 0-42.667 19.103-42.667 42.667v597.333c0 23.564 19.103 42.667 42.667 42.667z" />
<glyph unicode="&#xe919;" d="M341.333 789.333h444.193c23.564 0 42.667-19.103 42.667-42.667 0-6.391-1.436-12.701-4.202-18.463l-73.058-152.203 73.058-152.203c10.197-21.244 1.242-46.731-20.002-56.928-5.762-2.766-12.072-4.202-18.463-4.202h-444.193v426.667z" />
<glyph unicode="&#xe91a;" glyph-name="flag-solid" d="M213.333 789.333h42.667v-682.667h-42.667c-23.564 0-42.667 19.103-42.667 42.667v597.333c0 23.564 19.103 42.667 42.667 42.667zM341.333 789.333h469.382c23.564 0 42.667-19.103 42.667-42.667 0-6.682-1.569-13.271-4.582-19.235l-76.482-151.432 76.482-151.432c10.623-21.034 2.184-46.697-18.85-57.32-5.964-3.012-12.553-4.582-19.235-4.582h-469.382v426.667z" />
<glyph unicode="&#xe91b;" d="M213.333 789.333h42.667v-682.667h-42.667c-23.564 0-42.667 19.103-42.667 42.667v597.333c0 23.564 19.103 42.667 42.667 42.667z" />
<glyph unicode="&#xe91c;" d="M341.333 789.333h444.193c23.564 0 42.667-19.103 42.667-42.667 0-6.391-1.436-12.701-4.202-18.463l-73.058-152.203 73.058-152.203c10.197-21.244 1.242-46.731-20.002-56.928-5.762-2.766-12.072-4.202-18.463-4.202h-444.193v426.667z" />
<glyph unicode="&#xe91d;" glyph-name="industry-igaming" d="M512 960c-282.24 0-512-229.76-512-512s229.76-512 512-512 512 229.76 512 512-229.76 512-512 512zM179.584 448c0 182.944 149.472 332.416 332.416 332.416s332.416-149.472 332.416-332.416-149.472-332.416-332.416-332.416-332.416 149.472-332.416 332.416zM124.16 694.816l54.080-34.336c-22.477-34.863-40.062-75.397-50.493-118.719l-0.547-2.689-62.336 14.56c12.75 53.48 33.18 100.596 60.391 142.94l-1.095-1.82zM65.12 341.248l62.272 14.752c11.035-45.765 28.588-86.065 51.916-122.295l-0.94 1.559-54.016-34.336c-26.013 40.295-46.411 87.131-58.588 137.185l-0.644 3.135zM263.68 60.832l34.592 53.856c34.891-22.779 75.499-40.535 118.953-50.983l2.647-0.537-14.56-62.336c-53.695 12.793-100.993 33.473-143.378 61.066l1.746-1.066zM614.272 1.312l-14.848 62.24c45.806 11.125 86.119 28.911 122.25 52.558l-1.482-0.91 34.752-53.76c-40.36-26.484-87.317-47.201-137.572-59.518l-3.1-0.642zM913.184 235.456l-56.768 29.536c18.84 35.448 32.812 76.643 39.648 120.206l0.288 2.226 63.296-9.664c-8.297-53.223-24.552-101.103-47.666-144.796l1.202 2.492zM952.704 554.080l-62.304-14.656c-10.943 45.742-28.403 86.037-51.633 122.279l0.945-1.575 54.080 34.24c25.9-40.292 46.192-87.124 58.274-137.16l0.638-3.128zM755.328 834.336l-34.784-53.696c-34.592 22.751-74.835 40.565-117.91 51.188l-2.666 0.556 14.912 62.24c53.291-13.024 100.178-33.779 142.196-61.345l-1.716 1.057zM404.992 895.136l14.624-62.304c-45.646-10.912-85.852-28.443-121.934-51.801l1.518 0.921-34.464 53.984c40.26 26.134 87.089 46.553 137.17 58.635l3.086 0.629zM512 757.44c170.304 0 309.44-139.136 309.44-309.44s-139.136-309.44-309.44-309.44-309.44 139.136-309.44 309.44 139.136 309.44 309.44 309.44zM603.872 448.544c-10.624 7.52-22.304 15.040-35.040 19.328-13.824 5.376-26.56 9.664-38.24 13.984-8.198 2.108-15.268 4.68-22.008 7.84l0.76-0.32c-7.275 2.198-13.609 5.116-19.435 8.77l0.331-0.194c-5.924 2.892-10.892 6.887-14.816 11.757l-0.064 0.083c-4.455 5.18-7.239 11.909-7.455 19.283l-0.001 0.045c0 8.576 2.144 16.096 7.456 21.472 4.256 4.32 8.48 8.608 14.88 10.752 5.28 2.144 10.592 4.288 16.96 4.288 5.344 1.088 10.656 1.088 14.88 1.088 12.768 0 25.504-2.144 39.328-7.52 9.536-3.2 19.104-8.608 27.616-13.984l37.152 48.352c-8.74 7.904-18.928 14.416-30.086 19.070l-0.698 0.258c-11.68 5.376-23.392 8.192-36.128 10.752-7.072 1.44-12.16 1.44-15.264 0v47.264s0 1.088-1.056 1.088h-45.28s-1.056 0-1.056-1.088v-47.264c-1.686 0.213-3.637 0.335-5.616 0.335-4.039 0-7.96-0.507-11.702-1.462l0.327 0.071c-10.474-2.327-19.704-5.665-28.34-10.011l0.692 0.315c-10.592-5.344-20.16-11.808-28.672-19.328-8.539-7.73-15.105-17.481-18.957-28.507l-0.147-0.485c-4.61-11.458-7.336-24.738-7.456-38.639v-0.049c0-16.128 3.2-30.080 9.6-40.832 6.336-11.808 14.848-21.472 25.472-28.992 10.624-8.608 22.304-15.040 35.040-20.416 13.824-5.376 26.56-10.752 39.296-15.040 14.88-5.376 28.704-10.752 39.328-16.128 18.048-8.576 22.304-21.472 22.304-31.136 0-7.52-2.144-13.984-5.312-19.36-3.2-4.288-7.456-8.576-11.68-10.72-4.284-2.266-9.251-4.117-14.472-5.298l-0.408-0.078c-4.256-1.088-9.568-1.088-13.824-1.088-18.048 0-36.096 3.2-54.176 9.664-15.918 5.712-29.659 13.734-41.608 23.813l0.2-0.165-42.496-50.496c12.736-11.84 26.56-20.416 42.496-26.88 13.799-5.552 30.18-10.377 47.11-13.668l1.754-0.284c7.072-1.44 13.44-1.44 19.104 0v-53.696s0-1.088 1.056-1.088h48.48v54.784c1.696 0.736 5.696 1.792 12.096 3.2 9.536 2.176 18.048 5.408 27.616 9.696 10.624 5.376 21.248 11.84 28.672 20.416 8.48 7.52 14.88 17.184 20.16 27.936 5.344 10.752 7.456 22.56 7.456 35.456 0 17.184-3.2 32.224-9.568 42.976-6.703 12.067-15.625 22.113-26.3 29.899l-0.26 0.181z" />
<glyph unicode="&#xe91e;" glyph-name="linkedin" d="M870.4 370.791v-264.124h-153.633v246.435c0 61.906-22.221 104.155-77.832 104.155-42.451 0-67.714-28.473-78.828-56.015-4.053-9.846-5.096-23.551-5.096-37.334v-257.241h-153.685c0 0 2.070 417.38 0 460.623h153.67v-65.292c-0.312-0.488-0.717-1.015-1.010-1.488h1.010v1.488c20.417 31.341 56.878 76.113 138.491 76.113 101.113 0.002 176.913-65.835 176.913-207.32zM240.564 789.333c-52.575 0-86.964-34.371-86.964-79.569 0-44.214 33.394-79.627 84.924-79.627h1.027c53.594 0 86.924 35.407 86.924 79.627-1.010 45.199-33.33 79.569-85.911 79.569zM162.728 106.667h153.627v460.623h-153.627v-460.623z" />
<glyph unicode="&#xe91f;" glyph-name="last" d="M640 450.56l-336.683-338.731-89.984 90.539 246.741 248.235-246.741 248.235 89.984 90.496zM682.667 789.333h128v-682.667h-128z" />
<glyph unicode="&#xe920;" glyph-name="phone" d="M420.174 496.867c44.453-70.868 104.369-130.77 175.249-175.206l123.1 70.367 169.25-169.25-136.615-136.615c-15.030-15.030-38.83-16.705-55.817-3.928l-136.849 102.934c-106.206 79.885-200.518 174.462-280.105 280.891l-97.858 130.862c-12.702 16.986-10.998 40.724 4 55.722l95.276 95.276 0.064-0.114 41.439 41.439 169.25-169.25-70.382-123.128z" />
<glyph unicode="&#xe921;" glyph-name="plus" d="M576 512h277.333v-128h-277.333v-277.333h-128v277.333h-277.333v128h277.333v277.333h128v-277.333z" />
<glyph unicode="&#xe922;" glyph-name="industry-finance" horiz-adv-x="866" d="M702.9-64h-538.866c-90.444 0-164.034 74.298-164.034 165.613 0 153.629 55.786 299.349 165.458 433.086 69.317 84.604 139.82 137.092 161.185 152.431h213.173c21.602-15.099 91.868-67.827 161.185-152.431 109.91-133.737 165.458-279.217 165.458-433.086 0.475-91.315-73.115-165.613-163.559-165.613zM209.1 920.648c27.532 23.424 53.877 33.731 85.444 33.731 33.703 0 71.678-11.244 122.232-29.748 10.443-3.748 21.598-5.622 32.991-5.622 27.769 0 54.352 10.775 79.747 21.316 24.446 10.072 47.706 19.676 70.254 19.676 10.918 0 26.345-1.874 45.807-15.46l-113.925-208.942h-198.419l-124.131 185.050zM518.047 271.519c-9.805 7.265-20.591 14.529-32.357 18.681-12.747 5.189-24.513 9.34-35.299 13.492-6.864 2.076-13.727 4.151-19.611 7.265-6.864 2.076-12.747 5.189-17.65 8.303-5.883 3.113-10.786 7.265-13.727 11.416-3.922 5.189-6.864 11.416-6.864 18.681 0 8.303 1.961 15.567 6.864 20.756 3.922 4.151 7.844 8.303 13.727 10.378 4.903 2.076 9.805 4.151 15.688 4.151 4.903 1.038 9.805 1.038 13.727 1.038 11.766 0 23.533-2.076 36.28-7.265 8.825-3.113 17.65-8.303 25.494-13.492l34.319 46.702c-8.825 8.303-18.63 14.529-28.435 18.681-10.786 5.189-21.595 7.892-33.338 10.378-6.537 1.384-11.235 1.384-14.095 0v45.664c0 0 0 1.038-0.981 1.038h-41.795c0 0-0.981 0-0.981-1.038v-45.664c-4.576 0.692-9.805 0.346-15.688-1.038-8.825-2.076-17.65-5.189-25.494-9.34-9.805-5.189-18.63-11.416-26.474-18.681s-13.727-16.605-17.65-28.021c-3.922-10.378-6.864-23.87-6.864-37.361 0-15.567 2.942-29.059 8.825-39.437 5.883-11.416 13.727-20.756 23.533-28.021 9.805-8.303 20.591-14.529 32.357-19.719 12.747-5.189 24.513-10.378 36.28-14.529 13.727-5.189 26.474-10.378 36.28-15.567 16.669-8.303 20.591-20.756 20.591-30.097 0-7.265-1.961-13.492-4.903-18.681-2.942-4.151-6.864-8.303-10.786-10.378s-8.825-4.151-13.727-5.189c-3.922-1.038-8.825-1.038-12.747-1.038-16.669 0-33.338 3.113-50.007 9.34-13.727 5.189-26.474 12.454-38.241 22.832l-39.221-48.777c11.766-11.416 24.513-19.719 39.221-25.945s30.396-10.378 45.104-13.492c6.537-1.384 12.42-1.384 17.65 0v-51.891c0 0 0-1.038 0.981-1.038h44.737c0 0 0 17.643 0 52.929 1.553 0.692 5.27 1.73 11.154 3.113 8.825 2.076 16.669 5.189 25.494 9.34 9.805 5.189 19.611 11.416 26.474 19.719 7.844 7.265 13.727 16.605 18.63 26.983s6.864 21.794 6.864 34.248c0 16.605-2.942 31.134-8.825 41.513-6.864 12.454-14.708 21.794-24.513 29.059z" />
<glyph unicode="&#xe923;" glyph-name="question" horiz-adv-x="602" d="M197.695 277.061v48.369c0 41.833 8.356 78.218 25.068 109.157s47.282 63.838 91.711 98.699c42.799 32.682 71.025 59.263 84.68 79.744s20.482 43.358 20.482 68.632c0 28.324-9.782 49.894-29.348 64.71s-46.875 22.224-81.929 22.224c-61.141 0-130.841-21.352-209.102-64.056l-66.644 143.147c90.897 54.47 187.294 81.705 289.196 81.705 83.967 0 150.712-21.57 200.236-64.71s74.286-100.66 74.286-172.56c0-47.934-10.19-89.33-30.57-124.191s-59.103-74.079-116.168-117.655c-39.13-30.939-63.892-54.47-74.286-70.593s-15.591-37.257-15.591-63.403v-39.218h-162.023zM178.13 53.517c0 36.604 9.171 64.274 27.513 83.012s45.040 28.106 80.095 28.106c33.831 0 60.020-9.587 78.566-28.76s27.819-46.626 27.819-82.358c0-34.425-9.375-61.551-28.125-81.378s-44.836-29.74-78.26-29.74c-34.239 0-60.733 9.696-79.483 29.087s-28.125 46.735-28.125 82.031z" />
<glyph unicode="&#xe924;" glyph-name="question-small" d="M1024 448c0-282.833-229.25-512-512-512s-512 229.167-512 512c0 282.667 229.25 512 512 512s512-229.333 512-512zM525.739 790.71c-112.51 0-184.268-47.395-240.617-131.629-7.3-10.913-4.858-25.631 5.605-33.565l71.637-54.317c10.746-8.149 26.056-6.21 34.405 4.381 36.881 46.778 62.169 73.903 118.303 73.903 42.176 0 94.344-27.144 94.344-68.042 0-30.918-25.524-46.796-67.167-70.144-48.566-27.225-112.83-61.11-112.83-145.877v-8.258c0-13.682 11.093-24.774 24.774-24.774h115.613c13.682 0 24.774 11.093 24.774 24.774v2.752c0 58.76 171.739 61.207 171.739 220.216 0 119.746-124.212 210.581-240.58 210.581zM512 278.71c-52.366 0-94.968-42.601-94.968-94.968 0-52.364 42.601-94.968 94.968-94.968s94.968 42.603 94.968 94.968c0 52.366-42.601 94.968-94.968 94.968z" />
<glyph unicode="&#xe925;" glyph-name="search" d="M885.555 168.015l-149.561 149.535c-6.75 6.749-15.901 10.499-25.502 10.499h-24.452c41.403 52.945 66.005 119.538 66.005 191.981 0 172.333-139.66 311.97-312.023 311.97s-312.023-139.636-312.023-311.97c0-172.333 139.66-311.97 312.023-311.97 72.455 0 139.060 24.598 192.014 65.994v-24.448c0-9.599 3.75-18.748 10.501-25.498l149.561-149.535c14.101-14.099 36.903-14.099 50.854 0l42.453 42.446c14.101 14.099 14.101 36.896 0.15 50.995zM440.023 328.049c-106.058 0-192.014 85.792-192.014 191.981 0 106.040 85.806 191.981 192.014 191.981 106.058 0 192.014-85.792 192.014-191.981 0-106.040-85.806-191.981-192.014-191.981z" />
<glyph unicode="&#xe926;" glyph-name="settings" d="M448 739.794v38.873c0 5.891 4.776 10.667 10.667 10.667h106.667c5.891 0 10.667-4.776 10.667-10.667v-38.873c29.799-6.506 57.936-17.461 83.679-32.133l26.019 28.897c3.942 4.378 10.686 4.731 15.064 0.789l79.269-71.374c4.378-3.942 4.731-10.686 0.789-15.064l-26.039-28.919c23.271-32.415 40.211-69.681 49.012-109.99h38.873c5.891 0 10.667-4.776 10.667-10.667v-106.667c0-5.891-4.776-10.667-10.667-10.667h-38.873c-7.652-35.048-21.458-67.797-40.229-97.055l27.507-27.507c4.166-4.166 4.166-10.919 0-15.085l-75.425-75.425c-4.166-4.166-10.919-4.166-15.085 0l-27.507 27.507c-29.259-18.771-62.007-32.577-97.055-40.229v-38.873c0-5.891-4.776-10.667-10.667-10.667h-106.667c-5.891 0-10.667 4.776-10.667 10.667v38.873c-29.799 6.506-57.936 17.461-83.679 32.133l-26.019-28.897c-3.942-4.378-10.686-4.731-15.064-0.789l-79.269 71.374c-4.378 3.942-4.731 10.686-0.789 15.064l26.039 28.919c-23.271 32.415-40.211 69.681-49.012 109.99h-38.873c-5.891 0-10.667 4.776-10.667 10.667v106.667c0 5.891 4.776 10.667 10.667 10.667h38.873c7.652 35.048 21.458 67.797 40.229 97.055l-27.507 27.507c-4.166 4.166-4.166 10.919 0 15.085l75.425 75.425c4.166 4.166 10.919 4.166 15.085 0l27.507-27.507c29.259 18.771 62.007 32.577 97.055 40.229zM512 277.333c94.257 0 170.667 76.41 170.667 170.667s-76.41 170.667-170.667 170.667c-94.257 0-170.667-76.41-170.667-170.667s76.41-170.667 170.667-170.667z" />
<glyph unicode="&#xe927;" glyph-name="star-solid" d="M325.275 109.629c-26.072-13.707-58.318-3.683-72.025 22.389-5.458 10.382-7.342 22.274-5.359 33.834l35.661 207.921-151.063 147.25c-21.092 20.56-21.524 54.326-0.964 75.419 8.187 8.399 18.915 13.865 30.522 15.552l208.764 30.335 93.362 189.173c13.036 26.414 45.016 37.258 71.429 24.222 10.518-5.191 19.031-13.704 24.222-24.222l93.362-189.173 208.764-30.335c29.149-4.236 49.345-31.299 45.11-60.448-1.687-11.607-7.153-22.335-15.552-30.522l-151.063-147.25 35.661-207.921c4.979-29.031-14.519-56.602-43.55-61.582-11.56-1.983-23.452-0.099-33.834 5.359l-186.725 98.167-186.725-98.167z" />
<glyph unicode="&#xe928;" glyph-name="star-transparent" d="M512 304.204l169.043-88.871-32.284 188.232 136.758 133.306-188.995 27.463-84.521 171.259-84.521-171.259-188.995-27.463 136.758-133.306-32.284-188.232 169.043 88.871zM325.275 109.629c-26.072-13.707-58.318-3.683-72.025 22.389-5.458 10.382-7.342 22.274-5.359 33.834l35.661 207.921-151.063 147.25c-21.092 20.56-21.524 54.326-0.964 75.419 8.187 8.399 18.915 13.865 30.522 15.552l208.764 30.335 93.362 189.173c13.036 26.414 45.016 37.258 71.429 24.222 10.518-5.191 19.031-13.704 24.222-24.222l93.362-189.173 208.764-30.335c29.149-4.236 49.345-31.299 45.11-60.448-1.687-11.607-7.153-22.335-15.552-30.522l-151.063-147.25 35.661-207.921c4.979-29.031-14.519-56.602-43.55-61.582-11.56-1.983-23.452-0.099-33.834 5.359l-186.725 98.167-186.725-98.167z" />
<glyph unicode="&#xe929;" glyph-name="three-dots" d="M149.333 533.333h128c11.782 0 21.333-9.551 21.333-21.333v-128c0-11.782-9.551-21.333-21.333-21.333h-128c-11.782 0-21.333 9.551-21.333 21.333v128c0 11.782 9.551 21.333 21.333 21.333zM448 533.333h128c11.782 0 21.333-9.551 21.333-21.333v-128c0-11.782-9.551-21.333-21.333-21.333h-128c-11.782 0-21.333 9.551-21.333 21.333v128c0 11.782 9.551 21.333 21.333 21.333zM746.667 533.333h128c11.782 0 21.333-9.551 21.333-21.333v-128c0-11.782-9.551-21.333-21.333-21.333h-128c-11.782 0-21.333 9.551-21.333 21.333v128c0 11.782 9.551 21.333 21.333 21.333z" />
<glyph unicode="&#xe92a;" glyph-name="trash" d="M384 746.667v42.667c0 23.564 19.103 42.667 42.667 42.667h170.667c23.564 0 42.667-19.103 42.667-42.667v-42.667h170.667c23.564 0 42.667-19.103 42.667-42.667v-42.667h-682.667v42.667c0 23.564 19.103 42.667 42.667 42.667h170.667zM256 576h512v-469.333c0-23.564-19.103-42.667-42.667-42.667h-426.667c-23.564 0-42.667 19.103-42.667 42.667v469.333zM405.333 490.667c-11.782 0-21.333-9.551-21.333-21.333v-298.667c0-11.782 9.551-21.333 21.333-21.333h42.667c11.782 0 21.333 9.551 21.333 21.333v298.667c0 11.782-9.551 21.333-21.333 21.333h-42.667zM576 490.667c-11.782 0-21.333-9.551-21.333-21.333v-298.667c0-11.782 9.551-21.333 21.333-21.333h42.667c11.782 0 21.333 9.551 21.333 21.333v298.667c0 11.782-9.551 21.333-21.333 21.333h-42.667z" />
<glyph unicode="&#xe92b;" glyph-name="upload" d="M576 576v-213.333h-128v213.333h-106.667l170.667 213.333 170.667-213.333h-106.667zM725.333 234.667v170.667h128v-298.667h-682.667v298.667h128v-170.667h426.667z" />
<glyph unicode="&#xe92c;" glyph-name="user" d="M362.177 440.702c42.703-29.054 94.28-46.036 149.823-46.036 55.545 0 107.123 16.982 149.826 46.038 192.985-37.457 219.661-100.553 223.089-291.557 0.233-13.046 0.356-15.302 0.418-14.138-0.008-3.458-0.014-8.54-0.014-15.85 0 0-54.964-97.827-373.311-97.827-318.352 0-373.311 97.827-373.311 97.827 0 11.376-0.017 17.9-0.031 21.427 0.062-1.882 0.222-1.030 0.567 15.186 3.938 185.839 32.215 247.908 222.943 284.929zM512 448c-117.821 0-213.333 95.513-213.333 213.333s95.513 213.333 213.333 213.333c117.821 0 213.333-95.513 213.333-213.333s-95.513-213.333-213.333-213.333z" />
<glyph unicode="&#xe92d;" glyph-name="arrow-back" d="M270.641 405.333l231.895-231.895-60.34-60.34-331.869 331.869 331.869 331.869 60.34-60.34-225.83-225.83h619.295v-85.333h-625.359z" />
<glyph unicode="&#xe92e;" glyph-name="attention" horiz-adv-x="205" d="M27.494 960c-0.609 0-1.217-0.022-1.824-0.065-14.103-1.007-24.718-13.256-23.711-27.359l47.543-665.6c0.957-13.397 12.104-23.776 25.535-23.776h54.727c13.431 0 24.578 10.379 25.535 23.776l47.543 665.6c0.043 0.607 0.065 1.215 0.065 1.824 0 14.138-11.462 25.6-25.6 25.6h-149.812zM102.4-64c56.554 0 102.4 45.846 102.4 102.4s-45.846 102.4-102.4 102.4c-56.554 0-102.4-45.846-102.4-102.4s45.846-102.4 102.4-102.4z" />
<glyph unicode="&#xe92f;" glyph-name="reload" d="M170.667 448h-85.333l128 170.667 128-170.667h-85.333c0-164.949 133.718-298.667 298.667-298.667s298.667 133.718 298.667 298.667c0 164.949-133.718 298.667-298.667 298.667v85.333c212.077 0 384-171.923 384-384s-171.923-384-384-384c-212.077 0-384 171.923-384 384z" />
<glyph unicode="&#xe930;" glyph-name="industry-travel" horiz-adv-x="2048" d="M1948.491 815.857c-136.734 79.631-292.021 37.346-398.276-12.168l-316.597-147.576-544.527 273.769-324.307-13.914 449.656-455.8-286.539-136.132-298.165 113.483-199.62-93.064 180.405-223.955c-19.034-22.709-36.322-54.754-20.661-88.365 20.48-43.912 81.016-66.018 180.284-66.018 20.36 0 42.345 0.904 65.958 2.771 109.026 8.614 227.147 36.442 301.056 70.897l1131.821 527.661c97.702 45.538 146.372 93.365 148.781 146.312 1.265 27.407-9.758 67.403-69.271 102.099z" />
<glyph unicode="&#xe931;" glyph-name="industry-media" horiz-adv-x="1195" d="M1066.667 192h128v-256h-1194.667v256h128v512h-128v256h1194.667v-256h-128v-512zM128 874.667v-85.333h85.333v85.333h-85.333zM341.333 874.667v-85.333h85.333v85.333h-85.333zM554.667 874.667v-85.333h85.333v85.333h-85.333zM768 874.667v-85.333h85.333v85.333h-85.333zM981.333 874.667v-85.333h85.333v85.333h-85.333zM128 106.667v-85.333h85.333v85.333h-85.333zM341.333 106.667v-85.333h85.333v85.333h-85.333zM554.667 106.667v-85.333h85.333v85.333h-85.333zM768 106.667v-85.333h85.333v85.333h-85.333zM981.333 106.667v-85.333h85.333v85.333h-85.333zM512 586.368v-276.736c0-0.003 0-0.007 0-0.011 0-9.543 7.737-17.28 17.28-17.28 3.579 0 6.903 1.088 9.661 2.951l-0.061-0.039 207.573 138.368c4.667 3.143 7.696 8.407 7.696 14.379s-3.029 11.236-7.635 14.34l-0.062 0.039-207.573 138.368c-2.697 1.824-6.021 2.912-9.6 2.912-9.543 0-17.28-7.737-17.28-17.28 0-0.004 0-0.008 0-0.011v0.001z" />
<glyph unicode="&#xe932;" glyph-name="industry-healthcare" horiz-adv-x="948" d="M492.279 292.883v-188.719c-22.321-1.561-48.371-2.45-74.629-2.45-21.322 0-42.508 0.587-63.541 1.744l2.926-0.129c-19.532 1.138-36.409 6.751-37.547-12.44-0.030-0.546-0.048-1.185-0.048-1.827 0-18.751 14.712-34.067 33.223-35.033l0.086-0.004c19.853-1.152 43.075-1.809 66.45-1.809 25.71 0 51.234 0.794 76.55 2.36l-3.471-0.172v-77.179h-137.406c-19.57 0-35.461 12.857-35.461-6.372 0-19.266 15.891-34.854 35.461-34.854h360.524c0.102-0.001 0.222-0.002 0.343-0.002 19.311 0 34.985 15.569 35.156 34.839v0.016c0 19.228-15.891 6.372-35.499 6.372l-139.112 3.489v83.627c77.862 9.861 151.4 26.852 195.812 67.887 25.41 23.514 38.912 52.983 38.912 85.22 0 54.462-36.788 92.805-109.303 113.967-37.054 10.809-76.497 20.745-125.421 25.865v65.839c89.884 5.385 168.164 27.61 233.472 70.353 78.317 51.2 119.429 111.237 119.429 186.292-0.192 19.27-15.858 34.818-35.156 34.818-0.121 0-0.241-0.001-0.361-0.002h-721.030c-0.102 0.001-0.222 0.002-0.343 0.002-19.297 0-34.964-15.547-35.156-34.799v-0.018c0-75.055 45.132-135.054 123.411-186.292 65.308-42.743 141.805-68.456 231.727-73.842v-59.164c-240.412 21.239-402.318 48.735-402.318 210.868 0 194.712 171.615 244.395 240.071 256.455 19.342-32.92 62.957-55.41 114.991-55.41 70.466 0 125.611 41.188 125.611 93.791 0 52.641-55.182 93.829-125.611 93.829-55.561 0-101.641-25.638-118.594-62.312-30.72-4.93-84.461-16.953-138.505-45.284-77.065-40.467-168.96-122.046-168.96-281.145 0-106.382 56.13-182.348 166.76-225.773 89.695-35.195 204.99-43.691 306.555-52.679zM445.023 890.292c33.375 0 54.613-15.853 54.613-24.159 0-8.268-21.239-24.121-54.613-24.121s-54.613 15.853-54.613 24.121c0 8.306 21.239 24.159 54.613 24.159zM681.453 264.59c58.558-17.067 58.558-37.395 58.558-47.18 0-13.084-5.272-24.045-16.574-34.513-29.772-27.496-89.012-43.198-152.804-51.731v152.462c42.401-4.551 80.706-10.24 110.82-19.039z" />
<glyph unicode="&#xe933;" glyph-name="industry-digital-transformation" d="M341.333 960h113.792v-113.792h-113.792v113.792zM568.875 732.459h113.792v-113.792h-113.792v113.792zM568.875 960h113.792v-113.792h-113.792v113.792zM682.667 391.125h113.792v113.749h227.541v-113.749h-113.792v-113.792h-113.749v-227.541h113.749v227.541h113.792v-341.333h-1024v910.208h113.792v113.792h113.749v-113.792h113.792v-227.541h227.541v-113.792h-113.749v-113.749h113.749v113.749h113.792v-113.749zM682.667 618.667h113.792v-113.792h-113.792v113.792zM796.459 846.208h113.749v-113.749h-227.541v113.749h113.792zM910.208 732.459h113.792v-113.792h-113.792v113.792zM910.208 960h113.792v-113.792h-113.792v113.792z" />
<glyph unicode="&#xe934;" d="M604.572 343.962c-111.069-105-286.247-103.115-395.015 5.653-110.686 110.686-110.686 290.143 0 400.829s290.143 110.686 400.829 0c108.768-108.768 110.653-283.946 5.653-395.015l71.521-8.212c2.051-0.236 3.962-1.158 5.422-2.618l153.28-153.28c3.571-3.571 3.571-9.359 0-12.93l-64.65-64.65c-3.571-3.571-9.359-3.571-12.93 0l-153.28 153.28c-1.46 1.46-2.383 3.371-2.618 5.422l-8.212 71.521z" />
<glyph unicode="&#xe935;" d="M649.143 548.571c0-131.286-106.428-237.714-237.714-237.714s-237.714 106.428-237.714 237.714c0 131.286 106.428 237.714 237.714 237.714s237.714-106.428 237.714-237.714z" />
<glyph unicode="&#xe936;" d="M431.020 548.571l71.837-71.837-19.592-19.592-71.837 71.837-71.837-71.837-19.592 19.592 71.837 71.837-71.837 71.837 19.592 19.592 71.837-71.837 71.837 71.837 19.592-19.592z" />
<glyph unicode="&#xe937;" glyph-name="feedback" d="M128 789.333h768c23.564 0 42.667-19.103 42.667-42.667v-512c0-23.564-19.103-42.667-42.667-42.667h-554.667l-186.019-155.016c-18.102-15.085-45.007-12.64-60.092 5.463-6.39 7.668-9.889 17.333-9.889 27.315v676.905c0 23.564 19.103 42.667 42.667 42.667zM256 618.667c-23.564 0-42.667-19.103-42.667-42.667s19.103-42.667 42.667-42.667h512c23.564 0 42.667 19.103 42.667 42.667s-19.103 42.667-42.667 42.667h-512zM256 448c-23.564 0-42.667-19.103-42.667-42.667s19.103-42.667 42.667-42.667h341.333c23.564 0 42.667 19.103 42.667 42.667s-19.103 42.667-42.667 42.667h-341.333z" />
<glyph unicode="&#xe938;" glyph-name="eye" d="M512 149.333c-235.648 0-426.667 261.717-426.667 298.667s191.019 298.667 426.667 298.667 426.667-261.717 426.667-298.667c0-36.949-191.019-298.667-426.667-298.667zM512 234.667c117.821 0 213.333 95.513 213.333 213.333s-95.513 213.333-213.333 213.333v0c-117.821 0-213.333-95.513-213.333-213.333s95.513-213.333 213.333-213.333v0zM512 320c-70.692 0-128 57.308-128 128s57.308 128 128 128v0c70.692 0 128-57.308 128-128s-57.308-128-128-128v0z" />
</font>
</defs>
</svg>
